<svg width="28" height="28" viewBox="0 0 512 512" fill="none" xmlns="http://www.w3.org/2000/svg">
<g clip-path="url(#clip0_874_8932)">
<path d="M256.669 481.943C381.86 481.943 483.347 380.456 483.347 255.265C483.347 130.075 381.86 28.5876 256.669 28.5876C131.478 28.5876 29.9912 130.075 29.9912 255.265C29.9912 380.456 131.478 481.943 256.669 481.943Z" fill="#B2BEC3"/>
<path d="M256.061 0.0620117C115.135 0.0620117 0 115.071 0 256C0 396.926 115.133 511.938 256.061 511.938C396.997 511.939 512 396.917 512 256C512 115.063 396.979 0.0620117 256.061 0.0620117ZM256.061 481.946C131.406 481.946 29.992 380.586 29.992 256C29.992 199.069 51.178 146.995 86.073 107.22L177.987 199.134C149.236 243.768 136.09 264.586 136.09 300.99C136.09 367.142 189.909 420.961 256.061 420.961C295.189 420.961 329.997 402.131 351.911 373.059L404.793 425.94C365.024 460.789 312.97 481.946 256.061 481.946ZM330.433 351.578C314.22 375.337 286.933 390.967 256.062 390.967C206.448 390.967 166.084 350.603 166.084 300.989C166.084 274.563 175.335 258.722 199.689 220.834L330.433 351.578ZM216.276 195.006C227.416 177.525 240.672 156.283 256.062 130.029C277.459 166.529 294.737 193.337 307.937 213.816C335.664 256.837 346.04 272.935 346.04 300.989C346.04 308.304 345.156 315.417 343.501 322.231L216.276 195.006ZM426.002 404.731L367.265 345.994C372.914 332.089 376.033 316.897 376.033 300.989C376.033 264.106 362.594 243.254 333.147 197.567C317.554 173.374 296.198 140.24 269.094 92.627C266.428 87.942 261.452 85.049 256.061 85.049C250.67 85.049 245.694 87.942 243.028 92.627C224.042 125.98 207.883 152.225 194.546 173.277L107.291 86.022C147.076 51.194 199.142 30.053 256.06 30.053C380.649 30.054 482.007 131.413 482.007 256C482.007 312.908 460.851 364.962 426.002 404.731Z" fill="black"/>
</g>
<defs>
<clipPath id="clip0_874_8932">
<rect width="512" height="512" fill="white"/>
</clipPath>
</defs>
</svg>
